<svg width="19" height="19" viewBox="0 0 19 19" fill="none" xmlns="http://www.w3.org/2000/svg">
<path d="M9.49792 0.269799C5.71563 0.269799 2.12397 -0.0666589 0.752093 3.45417C0.185427 4.90834 0.267718 6.79688 0.267718 9.50105C0.267718 11.874 0.191677 14.1042 0.752093 15.5469C2.12084 19.0698 5.74168 18.7323 9.49584 18.7323C13.1177 18.7323 16.8521 19.1094 18.2406 15.5469C18.8083 14.0781 18.725 12.2177 18.725 9.50105C18.725 5.8948 18.924 3.56667 17.175 1.81876C15.4042 0.0479243 13.0094 0.269799 9.49376 0.269799H9.49792ZM8.67084 1.93334C16.5604 1.92084 17.5646 1.04376 17.0104 13.2281C16.8135 17.5375 13.5323 17.0646 9.49897 17.0646C2.1448 17.0646 1.93334 16.8542 1.93334 9.49688C1.93334 2.05417 2.51668 1.93751 8.67084 1.93126V1.93334ZM14.425 3.46563C13.8135 3.46563 13.3177 3.96147 13.3177 4.57292C13.3177 5.18438 13.8135 5.68022 14.425 5.68022C15.0365 5.68022 15.5323 5.18438 15.5323 4.57292C15.5323 3.96147 15.0365 3.46563 14.425 3.46563ZM9.49792 4.76042C6.88022 4.76042 4.75834 6.88334 4.75834 9.50105C4.75834 12.1188 6.88022 14.2406 9.49792 14.2406C12.1156 14.2406 14.2365 12.1188 14.2365 9.50105C14.2365 6.88334 12.1156 4.76042 9.49792 4.76042ZM9.49792 6.42397C13.5656 6.42397 13.5708 12.5781 9.49792 12.5781C5.43126 12.5781 5.42501 6.42397 9.49792 6.42397Z" fill="white"/>
</svg>
