<svg width="13" height="17" viewBox="0 0 13 17" fill="none" xmlns="http://www.w3.org/2000/svg">
<path d="M7.50895 11.7387C6.56397 11.6656 6.1669 11.197 5.4258 10.7472C5.01849 12.8842 4.52071 14.9328 3.04631 16.0031C2.59064 12.773 3.71432 10.347 4.23617 7.77184C3.34667 6.27449 4.34312 3.26062 6.21927 4.00328C8.52836 4.9164 4.22012 9.5709 7.11233 10.1522C10.1318 10.7592 11.3644 4.91306 9.49183 3.01151C6.78635 0.266139 1.61669 2.94912 2.2524 6.87923C2.40726 7.84003 3.40015 8.1317 2.64902 9.45748C0.917481 9.07401 0.400983 7.70834 0.467384 5.88767C0.57456 2.90745 3.14524 0.820738 5.72372 0.531963C8.98469 0.166983 12.0454 1.7294 12.4678 4.79675C12.9431 8.25871 10.9956 12.0079 7.50895 11.7387Z" fill="#F1F2F2"/>
</svg>
