<?xml version="1.0" encoding="utf-8"?>
<!-- Generator: Adobe Illustrator 27.2.0, SVG Export Plug-In . SVG Version: 6.00 Build 0)  -->
<svg version="1.1" id="Слой_1" xmlns="http://www.w3.org/2000/svg" xmlns:xlink="http://www.w3.org/1999/xlink" x="0px" y="0px"
	 viewBox="0 0 1000 1000" style="enable-background:new 0 0 1000 1000;" xml:space="preserve">
<style type="text/css">
	.st0{fill:#313EBA;}
</style>
<g>
	<path class="st0" d="M900.2,10H99.8C50.8,10,10,50.8,10,99.8v800.3c0,49,40.8,89.8,89.8,89.8h800.3c49,0,89.8-40.8,89.8-89.8V99.8
		C990,50.8,949.2,10,900.2,10z M789.9,585.7c57.2,53.1,69.4,81.7,73.5,85.8c24.5,40.8-28.6,44.9-28.6,44.9h-98c0,0-20.4,4.1-49-16.3
		c-36.7-24.5-69.4-89.8-98-81.7s-24.5,69.4-24.5,69.4s0,12.3-4.1,16.3c-8.2,8.2-20.4,8.2-20.4,8.2h-44.9c0,0-98,8.2-183.8-81.7
		c-93.9-98-179.7-289.9-179.7-289.9s-4.1-12.3,0-16.3c4.1-8.2,20.4-8.2,20.4-8.2H259c0,0,8.2,0,16.3,8.2c4.1,4.1,8.2,12.2,8.2,12.2
		s16.3,44.9,40.8,81.7c44.9,77.6,65.3,93.9,77.6,85.8c20.4-12.3,16.3-106.2,16.3-106.2s0-32.7-12.2-49
		c-4.1-20.4-20.4-20.4-28.6-24.5c-4.1,0,4.1-16.3,16.3-20.4c20.4-8.2,53.1-8.2,93.9-8.2c32.7,0,40.8,4.1,53.1,4.1
		c36.8,8.2,24.5,40.8,24.5,122.5c0,24.5-4.1,61.2,12.3,73.5c8.1,4.1,28.6,0,77.6-81.7c24.5-40.8,40.8-85.8,40.8-85.8
		s4.1-8.2,8.2-12.2c4.1-4.1,12.2-4.1,12.2-4.1h110.3c0,0,32.7-4.1,36.8,12.3c4.1,16.3-12.3,53.1-57.2,114.3
		C732.8,536.7,724.6,528.6,789.9,585.7z"/>
</g>
</svg>
